# xmcd CD database file
#
# Track frame offsets:
#	150
#	9771
#	27212
#	47026
#	63568
#	82294
#	99949
#	117762
#	138500
#	154485
#
# Disc length: 2287 seconds
#
# Revision: 0
# Processed by: cddbd v1.5.2PL0 Copyright (c) Steve Scherf et al.
# Submitted via: CDex 1.70beta3
#
DISCID=7d08ed0a
DTITLE=Paul Barbarin and His Jazz Band, Punch Miller's Bunch and George Lewis - Jazz At Preservation Hall 3
DYEAR=1962
DGENRE=Jazz
TTITLE0=Slide Frog Slide
TTITLE1=The Second Line
TTITLE2=Give It Up
TTITLE3=Too Late
TTITLE4=Take A Ferryboat Down To New Orleans
TTITLE5=Corrine Corrina
TTITLE6=Hindustan
TTITLE7=Nobody Knows The Way I Feel This Morning
TTITLE8=Tiger Rag
TTITLE9=Preservation Blues
EXTD=YEAR: 1962
EXTT0=
EXTT1=
EXTT2=
EXTT3=
EXTT4=
EXTT5=
EXTT6=
EXTT7=
EXTT8=
EXTT9=
PLAYORDER=
